<?xml version="1.0" encoding="UTF-8"?>
<svg xmlns="http://www.w3.org/2000/svg"  width="354px" height="190px" viewBox="0 0 954 190" version="1.1" >
<g id="surface1">
<path style=" stroke:none;fill-rule:nonzero;fill:rgb(0%,0%,0%);fill-opacity:1;" d="M 259 48 C 265.339844 48.621094 271.195312 50.015625 277.324219 51.730469 C 278.796875 52.140625 278.796875 52.140625 280.300781 52.558594 C 283.429688 53.429688 286.558594 54.308594 289.6875 55.1875 C 291.738281 55.757812 293.789062 56.328125 295.835938 56.898438 C 308.910156 60.542969 321.957031 64.257812 335 68 C 334.597656 73.03125 333.558594 77.429688 331.980469 82.191406 C 329.503906 90.777344 329.464844 98.953125 329.546875 107.835938 C 329.546875 109.566406 329.542969 111.292969 329.542969 113.074219 C 329.546875 118.746094 329.578125 124.414062 329.609375 130.085938 C 329.617188 134.035156 329.621094 137.984375 329.625 141.929688 C 329.640625 151.234375 329.671875 160.539062 329.710938 169.839844 C 329.757812 180.441406 329.777344 191.039062 329.796875 201.640625 C 329.839844 223.425781 329.910156 245.214844 330 267 C 332.320312 267.457031 332.320312 267.457031 334.6875 267.917969 C 341.511719 269.308594 348.183594 271.148438 354.902344 272.976562 C 358.78125 274.121094 358.78125 274.121094 362 274 C 362 224.171875 362 174.339844 362 123 C 357.710938 122.011719 353.421875 121.019531 349 120 C 348.339844 119.671875 347.679688 119.339844 347 119 C 347.644531 112.203125 349.253906 105.792969 351.054688 99.230469 C 351.355469 98.113281 351.660156 96.996094 351.96875 95.847656 C 352.933594 92.292969 353.902344 88.738281 354.875 85.1875 C 355.519531 82.8125 356.164062 80.4375 356.808594 78.0625 C 358.53125 71.707031 360.265625 65.351562 362 59 C 362.570312 56.914062 363.136719 54.828125 363.707031 52.738281 C 364.132812 51.175781 364.5625 49.613281 365 48 C 373.554688 48.585938 381.472656 50.855469 389.691406 53.148438 C 391.191406 53.5625 392.691406 53.976562 394.234375 54.402344 C 397.398438 55.273438 400.558594 56.148438 403.71875 57.027344 C 408.546875 58.371094 413.378906 59.703125 418.210938 61.03125 C 421.285156 61.882812 424.363281 62.734375 427.441406 63.585938 C 428.882812 63.984375 430.320312 64.378906 431.804688 64.789062 C 438.320312 66.605469 444.71875 68.460938 451 71 C 449.4375 80.9375 446.753906 90.460938 444 100.125 C 443.101562 103.292969 442.207031 106.464844 441.3125 109.632812 C 440.917969 111.023438 440.519531 112.414062 440.113281 113.847656 C 437.898438 122.113281 436.757812 129.441406 436.808594 138.035156 C 436.8125 139.113281 436.816406 140.191406 436.820312 141.304688 C 436.832031 144.90625 436.859375 148.503906 436.886719 152.105469 C 436.898438 154.695312 436.910156 157.285156 436.921875 159.875 C 436.941406 165.453125 436.96875 171.03125 437 176.613281 C 437.046875 185.484375 437.066406 194.359375 437.078125 203.230469 C 437.082031 205.488281 437.082031 205.488281 437.085938 207.785156 C 437.089844 210.863281 437.09375 213.9375 437.097656 217.011719 C 437.125 237.652344 437.167969 258.296875 437.296875 278.9375 C 437.386719 292.878906 437.425781 306.816406 437.410156 320.753906 C 437.40625 328.101562 437.421875 335.453125 437.5 342.800781 C 437.847656 378.078125 435.171875 409.355469 424.523438 443.109375 C 422.75 448.796875 421.214844 454.527344 419.738281 460.296875 C 419 463 419 463 418 465 C 410.082031 463.523438 402.382812 461.566406 394.625 459.429688 C 393.332031 459.074219 392.035156 458.722656 390.703125 458.359375 C 386.46875 457.199219 382.234375 456.039062 378 454.875 C 375.054688 454.070312 372.109375 453.261719 369.164062 452.457031 C 346.964844 446.378906 324.777344 440.265625 302.59375 434.128906 C 291.410156 431.035156 280.222656 427.953125 269 425 C 267.894531 420.582031 268.304688 418.835938 269.429688 414.503906 C 269.9375 412.527344 269.9375 412.527344 270.453125 410.507812 C 270.828125 409.089844 271.199219 407.671875 271.585938 406.207031 C 271.960938 404.75 272.339844 403.292969 272.726562 401.792969 C 273.523438 398.710938 274.328125 395.632812 275.132812 392.554688 C 276.371094 387.824219 277.597656 383.089844 278.820312 378.351562 C 279.59375 375.367188 280.371094 372.378906 281.148438 369.394531 C 281.703125 367.253906 281.703125 367.253906 282.269531 365.074219 C 282.613281 363.765625 282.957031 362.457031 283.308594 361.109375 C 283.613281 359.949219 283.914062 358.792969 284.226562 357.597656 C 285 355 285 355 286 354 C 293.296875 354.476562 300.191406 356.160156 307.234375 358.019531 C 308.390625 358.320312 309.542969 358.621094 310.734375 358.929688 C 313.167969 359.5625 315.601562 360.199219 318.035156 360.835938 C 321.722656 361.804688 325.410156 362.765625 329.101562 363.71875 C 331.480469 364.339844 333.855469 364.960938 336.234375 365.582031 C 337.320312 365.863281 338.40625 366.148438 339.523438 366.4375 C 347.082031 368.429688 354.542969 370.664062 362 373 C 362.023438 365.582031 362.042969 358.160156 362.054688 350.742188 C 362.058594 348.21875 362.066406 345.695312 362.074219 343.171875 C 362.085938 339.539062 362.09375 335.910156 362.097656 332.277344 C 362.101562 331.152344 362.109375 330.03125 362.113281 328.875 C 362.113281 323.488281 361.957031 318.304688 361 313 C 360.734375 313.988281 360.464844 314.976562 360.191406 315.996094 C 358.984375 320.457031 357.773438 324.917969 356.5625 329.375 C 356.140625 330.933594 355.722656 332.488281 355.289062 334.09375 C 354.882812 335.578125 354.480469 337.058594 354.066406 338.585938 C 353.695312 339.957031 353.324219 341.328125 352.941406 342.742188 C 352 346 352 346 351 348 C 344.3125 347.421875 338.183594 346.128906 331.722656 344.332031 C 330.738281 344.058594 329.753906 343.789062 328.738281 343.507812 C 325.511719 342.617188 322.285156 341.714844 319.0625 340.8125 C 316.8125 340.1875 314.566406 339.566406 312.316406 338.941406 C 306.417969 337.308594 300.519531 335.660156 294.625 334.011719 C 290.988281 332.996094 287.351562 331.980469 283.71875 330.96875 C 269.472656 326.992188 255.234375 323.003906 241 319 C 239.636719 313.539062 241.273438 310.648438 243.132812 305.339844 C 255.625 267.824219 257.046875 232.617188 256.492188 193.320312 C 256.398438 185.351562 256.390625 177.386719 256.375 169.417969 C 256.335938 153.945312 256.199219 138.472656 256 123 C 253.636719 122.539062 253.636719 122.539062 251.226562 122.070312 C 247.304688 121.265625 243.738281 120.378906 240 119 C 241.425781 111.476562 243.195312 104.109375 245.152344 96.710938 C 245.453125 95.566406 245.753906 94.425781 246.0625 93.246094 C 246.695312 90.84375 247.332031 88.441406 247.96875 86.039062 C 248.9375 82.378906 249.898438 78.71875 250.859375 75.054688 C 251.476562 72.710938 252.09375 70.367188 252.714844 68.023438 C 253 66.9375 253.285156 65.851562 253.578125 64.730469 C 255.097656 59.019531 256.8125 53.492188 259 48 Z M 259 48 "/>
<path style=" stroke:none;fill-rule:nonzero;fill:rgb(0%,0%,0%);fill-opacity:1;" d="M 56 43 C 69.496094 43.671875 82.929688 44.84375 96.378906 46.109375 C 98.636719 46.320312 100.898438 46.53125 103.15625 46.742188 C 107.890625 47.183594 112.625 47.628906 117.359375 48.074219 C 123.269531 48.628906 129.179688 49.179688 135.089844 49.730469 C 166.082031 52.617188 197.046875 55.703125 228 59 C 227.410156 69.023438 226.703125 79.027344 225.808594 89.03125 C 225.699219 90.273438 225.589844 91.515625 225.476562 92.796875 C 225.132812 96.699219 224.785156 100.597656 224.4375 104.5 C 224.199219 107.171875 223.964844 109.847656 223.726562 112.519531 C 223.15625 119.011719 222.578125 125.507812 222 132 C 219 133 219 133 205 131 C 205 222.078125 205 313.160156 205 407 C 199.765625 408.746094 194.804688 410.394531 189.503906 411.734375 C 188.3125 412.035156 187.117188 412.339844 185.886719 412.652344 C 184.621094 412.96875 183.359375 413.285156 182.058594 413.609375 C 180.738281 413.941406 179.414062 414.273438 178.050781 414.613281 C 175.269531 415.308594 172.484375 416 169.699219 416.691406 C 165.445312 417.75 161.195312 418.824219 156.945312 419.902344 C 154.234375 420.578125 151.523438 421.25 148.808594 421.921875 C 147.542969 422.246094 146.277344 422.570312 144.976562 422.902344 C 143.785156 423.195312 142.59375 423.484375 141.363281 423.785156 C 140.328125 424.042969 139.289062 424.304688 138.21875 424.570312 C 131.816406 425.425781 125.816406 423.824219 119.664062 422.140625 C 117.566406 421.570312 117.566406 421.570312 115.421875 420.988281 C 113.929688 420.578125 112.441406 420.167969 110.90625 419.746094 C 109.363281 419.324219 107.820312 418.90625 106.230469 418.472656 C 101.320312 417.132812 96.410156 415.785156 91.5 414.4375 C 88.164062 413.527344 84.828125 412.617188 81.492188 411.703125 C 73.328125 409.476562 65.164062 407.242188 57 405 C 57.589844 396.859375 59.625 389.378906 61.816406 381.558594 C 62.378906 379.511719 62.378906 379.511719 62.957031 377.425781 C 64.152344 373.09375 65.355469 368.765625 66.5625 364.4375 C 67.378906 361.492188 68.191406 358.546875 69.007812 355.601562 C 70.996094 348.398438 72.996094 341.199219 75 334 C 81.382812 333.601562 87.027344 335.109375 93.113281 336.808594 C 94.6875 337.238281 94.6875 337.238281 96.296875 337.675781 C 99.636719 338.589844 102.976562 339.511719 106.3125 340.4375 C 108.574219 341.054688 110.839844 341.675781 113.101562 342.289062 C 115.253906 342.878906 117.402344 343.46875 119.550781 344.058594 C 120.570312 344.335938 121.585938 344.617188 122.632812 344.90625 C 129.761719 346.882812 129.761719 346.882812 132 348 C 132 274.738281 132 201.480469 132 126 C 133.648438 125.671875 135.300781 125.339844 137 125 C 136.132812 124.917969 135.265625 124.832031 134.375 124.746094 C 125.289062 123.875 116.203125 122.996094 107.117188 122.117188 C 103.734375 121.792969 100.351562 121.464844 96.96875 121.140625 C 92.082031 120.671875 87.199219 120.199219 82.3125 119.726562 C 80.820312 119.582031 79.328125 119.441406 77.789062 119.292969 C 68.171875 118.359375 58.585938 117.25 49 116 C 49.648438 101.992188 50.824219 88.0625 52.15625 74.109375 C 52.503906 70.453125 52.84375 66.792969 53.183594 63.136719 C 53.402344 60.808594 53.625 58.484375 53.84375 56.15625 C 53.996094 54.515625 53.996094 54.515625 54.148438 52.84375 C 54.886719 45.230469 54.886719 45.230469 56 43 Z M 56 43 "/>
<path style=" stroke:none;fill-rule:nonzero;fill:rgb(0%,2.745098%,7.450981%);fill-opacity:1;" d="M 147 124 C 154.261719 124.660156 161.519531 125.320312 169 126 C 169 126.328125 169 126.660156 169 127 C 157.121094 127 145.238281 127 133 127 C 133 126.671875 133 126.339844 133 126 C 137.621094 125.671875 142.238281 125.339844 147 125 C 147 124.671875 147 124.339844 147 124 Z M 147 124 "/>
</g>
</svg>
