<svg version="1.1" id="Layer_1" xmlns="http://www.w3.org/2000/svg" xmlns:xlink="http://www.w3.org/1999/xlink" x="0px" y="0px"
	 width="100%" viewBox="0 0 500 500" enable-background="new 0 0 500 500" xml:space="preserve">
<path fill="#000000" opacity="1.000000" stroke="none" 
	d="
M454.000000,501.000000 
	C302.666718,501.000000 151.833405,501.000000 1.000081,501.000000 
	C1.000054,334.333405 1.000054,167.666824 1.000027,1.000170 
	C167.666550,1.000114 334.333099,1.000114 500.999756,1.000057 
	C500.999817,167.666519 500.999817,334.333038 500.999908,500.999756 
	C485.500000,501.000000 470.000000,501.000000 454.000000,501.000000 
M256.016510,212.531754 
	C254.035538,211.447006 253.421005,211.839508 252.893829,214.267639 
	C251.570694,220.361908 249.675919,226.332047 248.256287,231.463226 
	C250.101837,233.186905 252.828232,234.561783 252.804993,235.888489 
	C252.490433,253.838577 255.563828,272.123718 247.640640,289.518951 
	C251.928207,290.764465 255.759094,291.931091 259.620972,292.984070 
	C263.495148,294.040344 267.382782,295.058807 271.295349,295.960114 
	C279.494354,297.848877 279.502655,297.812805 282.701599,290.457275 
	C282.701599,295.268219 282.701599,300.079132 282.701599,305.103760 
	C276.293701,303.354675 270.291534,301.567566 264.193634,300.210480 
	C263.267548,300.004364 261.223328,301.569580 260.846741,302.699066 
	C259.025543,308.161438 257.597412,313.754852 255.852966,319.928131 
	C270.263733,323.902527 284.643005,327.868225 298.976013,331.821136 
	C303.260376,319.171082 305.733337,306.914185 305.115997,293.957458 
	C304.506287,281.159271 304.955627,268.309082 304.996094,255.481857 
	C305.035522,242.981369 303.816681,230.352509 309.219086,218.584579 
	C300.672577,216.231476 292.786255,214.060135 284.293518,211.721817 
	C282.511261,218.125458 280.720001,224.382446 279.093781,230.682007 
	C278.931763,231.309677 279.714539,232.820908 280.160339,232.863663 
	C283.448456,233.179062 282.999329,235.514664 283.000732,237.652496 
	C283.003723,242.150375 283.004333,246.648270 283.004608,251.146149 
	C283.005127,259.720367 283.004761,268.294556 283.004761,277.107544 
	C279.646118,276.187531 276.897644,275.434631 274.868805,274.878876 
	C274.868805,255.622955 274.868805,236.733795 274.868805,217.370041 
	C269.186676,215.989136 262.965210,214.477142 256.016510,212.531754 
M195.967545,312.242035 
	C195.595581,312.942719 195.223602,313.643433 194.824249,314.395691 
	C197.845840,315.227234 200.589096,316.154602 203.404984,316.720764 
	C209.064163,317.858551 214.765442,319.588013 220.444550,319.569885 
	C224.925446,319.555603 229.335251,316.702423 233.895798,316.206818 
	C237.711273,315.792236 238.025650,314.132446 238.011322,311.093079 
	C237.919479,291.613617 237.949921,272.133606 237.941467,252.653748 
	C237.939102,247.196609 237.941101,241.739471 237.941101,236.311493 
	C239.900314,236.028214 241.437485,235.805939 242.785187,235.611069 
	C243.470871,228.610703 244.118118,222.002670 244.778534,215.260147 
	C238.721466,214.624374 232.736145,213.919235 226.735672,213.383957 
	C217.278030,212.540329 207.817169,211.679199 198.339035,211.177902 
	C196.950180,211.104431 194.283752,212.891022 194.209732,213.956009 
	C193.801559,219.830185 194.014572,225.747528 194.014572,231.734009 
	C201.174561,232.494751 208.925842,233.318314 216.699188,234.144211 
	C216.699188,255.539169 216.699188,276.704071 216.699188,298.024078 
	C212.183197,296.762268 208.054062,295.426361 203.829483,294.551208 
	C202.719437,294.321259 200.464752,295.242004 200.183762,296.105499 
	C198.549362,301.128082 197.346817,306.291138 195.967545,312.242035 
z"/>
<path fill="#FEFEFE" opacity="1.000000" stroke="none" 
	d="
M256.380127,212.748459 
	C262.965210,214.477142 269.186676,215.989136 274.868805,217.370041 
	C274.868805,236.733795 274.868805,255.622955 274.868805,274.878876 
	C276.897644,275.434631 279.646118,276.187531 283.004761,277.107544 
	C283.004761,268.294556 283.005127,259.720367 283.004608,251.146149 
	C283.004333,246.648270 283.003723,242.150375 283.000732,237.652496 
	C282.999329,235.514664 283.448456,233.179062 280.160339,232.863663 
	C279.714539,232.820908 278.931763,231.309677 279.093781,230.682007 
	C280.720001,224.382446 282.511261,218.125458 284.293518,211.721817 
	C292.786255,214.060135 300.672577,216.231476 309.219086,218.584579 
	C303.816681,230.352509 305.035522,242.981369 304.996094,255.481857 
	C304.955627,268.309082 304.506287,281.159271 305.115997,293.957458 
	C305.733337,306.914185 303.260376,319.171082 298.976013,331.821136 
	C284.643005,327.868225 270.263733,323.902527 255.852966,319.928131 
	C257.597412,313.754852 259.025543,308.161438 260.846741,302.699066 
	C261.223328,301.569580 263.267548,300.004364 264.193634,300.210480 
	C270.291534,301.567566 276.293701,303.354675 282.701599,305.103760 
	C282.701599,300.079132 282.701599,295.268219 282.697693,290.454529 
	C279.502655,297.812805 279.494354,297.848877 271.295349,295.960114 
	C267.382782,295.058807 263.495148,294.040344 259.620972,292.984070 
	C255.759094,291.931091 251.928207,290.764465 247.640640,289.518951 
	C255.563828,272.123718 252.490433,253.838577 252.804993,235.888489 
	C252.828232,234.561783 250.101837,233.186905 248.256287,231.463226 
	C249.675919,226.332047 251.570694,220.361908 252.893829,214.267639 
	C253.421005,211.839508 254.035538,211.447006 256.380127,212.748459 
z"/>
<path fill="#FEFEFE" opacity="1.000000" stroke="none" 
	d="
M195.982910,311.824402 
	C197.346817,306.291138 198.549362,301.128082 200.183762,296.105499 
	C200.464752,295.242004 202.719437,294.321259 203.829483,294.551208 
	C208.054062,295.426361 212.183197,296.762268 216.699188,298.024078 
	C216.699188,276.704071 216.699188,255.539169 216.699188,234.144211 
	C208.925842,233.318314 201.174561,232.494751 194.014572,231.734009 
	C194.014572,225.747528 193.801559,219.830185 194.209732,213.956009 
	C194.283752,212.891022 196.950180,211.104431 198.339035,211.177902 
	C207.817169,211.679199 217.278030,212.540329 226.735672,213.383957 
	C232.736145,213.919235 238.721466,214.624374 244.778534,215.260147 
	C244.118118,222.002670 243.470871,228.610703 242.785187,235.611069 
	C241.437485,235.805939 239.900314,236.028214 237.941101,236.311493 
	C237.941101,241.739471 237.939102,247.196609 237.941467,252.653748 
	C237.949921,272.133606 237.919479,291.613617 238.011322,311.093079 
	C238.025650,314.132446 237.711273,315.792236 233.895798,316.206818 
	C229.335251,316.702423 224.925446,319.555603 220.444550,319.569885 
	C214.765442,319.588013 209.064163,317.858551 203.404984,316.720764 
	C200.589096,316.154602 197.845840,315.227234 194.824249,314.395691 
	C195.223602,313.643433 195.595581,312.942719 195.982910,311.824402 
z"/>
</svg>